<svg xmlns="http://www.w3.org/2000/svg" viewBox="0 0 32 32" fill="none">
  <defs>
    <linearGradient id="g1" x1="2" y1="2" x2="30" y2="30">
      <stop stop-color="#a855f7"/>
      <stop offset="1" stop-color="#ec4899"/>
    </linearGradient>
    <linearGradient id="g2" x1="16" y1="4" x2="16" y2="28">
      <stop stop-color="#c084fc" stop-opacity="0.6"/>
      <stop offset="1" stop-color="#f472b6" stop-opacity="0.3"/>
    </linearGradient>
    <linearGradient id="g3" x1="16" y1="2" x2="16" y2="30">
      <stop stop-color="#d8b4fe"/>
      <stop offset="0.5" stop-color="#a855f7"/>
      <stop offset="1" stop-color="#f472b6"/>
    </linearGradient>
    <filter id="glow">
      <feGaussianBlur stdDeviation="1.5" result="blur"/>
      <feMerge><feMergeNode in="blur"/><feMergeNode in="SourceGraphic"/></feMerge>
    </filter>
  </defs>
  <!-- Outer glow -->
  <path d="M16 1L30 12L16 31L2 12L16 1Z" fill="url(#g1)" stroke="url(#g3)" stroke-width="0.4"/>
  <!-- Top facets -->
  <path d="M16 1L21 12L16 12L16 1Z" fill="rgba(255,255,255,0.15)"/>
  <path d="M16 1L11 12L16 12L16 1Z" fill="rgba(255,255,255,0.08)"/>
  <path d="M16 1L30 12L21 12L16 1Z" fill="rgba(255,255,255,0.12)"/>
  <path d="M16 1L2 12L11 12L16 1Z" fill="rgba(255,255,255,0.05)"/>
  <!-- Bottom facets -->
  <path d="M16 31L21 12L16 12L16 31Z" fill="rgba(0,0,0,0.1)"/>
  <path d="M16 31L11 12L16 12L16 31Z" fill="rgba(0,0,0,0.15)"/>
  <path d="M16 31L30 12L21 12L16 31Z" fill="rgba(0,0,0,0.05)"/>
  <path d="M16 31L2 12L11 12L16 31Z" fill="rgba(0,0,0,0.12)"/>
  <!-- Center highlight streak -->
  <path d="M16 4L18 12L16 14L14 12L16 4Z" fill="rgba(255,255,255,0.2)"/>
  <!-- Edge highlights -->
  <path d="M16 1L30 12" stroke="rgba(255,255,255,0.3)" stroke-width="0.5" filter="url(#glow)"/>
  <path d="M16 1L2 12" stroke="rgba(255,255,255,0.15)" stroke-width="0.3"/>
  <path d="M16 31L30 12" stroke="rgba(255,255,255,0.1)" stroke-width="0.3"/>
  <path d="M16 31L2 12" stroke="rgba(255,255,255,0.08)" stroke-width="0.2"/>
</svg>
